HIERARCHY
ROOT Hips
{
	OFFSET	0.00	0.00	0.00
	CHANNELS 6 Xposition Yposition Zposition Zrotation Xrotation Yrotation
	JOINT LeftUpLeg
	{
		OFFSET	 0.126116	-0.065224	 0.014019
		CHANNELS 3 Zrotation Xrotation Yrotation
		JOINT LeftLeg
		{
			OFFSET	 0.000000	 0.569914	 0.000000
			CHANNELS 3 Zrotation Xrotation Yrotation
			JOINT LeftFoot
			{
				OFFSET	 0.000000	 0.544423	 0.000000
				CHANNELS 3 Zrotation Xrotation Yrotation
				JOINT LeftToeBase
				{
					OFFSET	 0.000000	 0.207117	 0.000000
					CHANNELS 3 Zrotation Xrotation Yrotation
					End Site
					{
						OFFSET	 0.000000	 0.207117	 0.000000
					}
				}
			}
		}
	}
	JOINT RightUpLeg
	{
		OFFSET	-0.124023	-0.065224	 0.008373
		CHANNELS 3 Zrotation Xrotation Yrotation
		JOINT RightLeg
		{
			OFFSET	 0.000000	 0.570047	 0.000000
			CHANNELS 3 Zrotation Xrotation Yrotation
			JOINT RightFoot
			{
				OFFSET	 0.000000	 0.544354	 0.000000
				CHANNELS 3 Zrotation Xrotation Yrotation
				JOINT RightToeBase
				{
					OFFSET	 0.000000	 0.207540	 0.000000
					CHANNELS 3 Zrotation Xrotation Yrotation
					End Site
					{
						OFFSET	 0.000000	 0.207540	 0.000000
					}
				}
			}
		}
	}
	JOINT Spine
	{
		OFFSET	 0.000184	 0.117403	 0.007763
		CHANNELS 3 Zrotation Xrotation Yrotation
		JOINT Spine1
		{
			OFFSET	 0.000000	 0.137269	 0.000000
			CHANNELS 3 Zrotation Xrotation Yrotation
			JOINT Spine2
			{
				OFFSET	 0.000000	 0.156879	 0.000000
				CHANNELS 3 Zrotation Xrotation Yrotation
				JOINT LeftShoulder
				{
					OFFSET	 0.080501	 0.160143	 0.002496
					CHANNELS 3 Zrotation Xrotation Yrotation
					JOINT LeftArm
					{
						OFFSET	 0.000000	 0.164363	 0.000000
						CHANNELS 3 Zrotation Xrotation Yrotation
						JOINT LeftForeArm
						{
							OFFSET	 0.000000	 0.364576	 0.000000
							CHANNELS 3 Zrotation Xrotation Yrotation
							JOINT LeftHand
							{
								OFFSET	 0.000000	 0.360812	 0.000000
								CHANNELS 3 Zrotation Xrotation Yrotation
								JOINT LeftHandIndex1
								{
									OFFSET	 0.000000	 0.086006	 0.000000
									CHANNELS 3 Zrotation Xrotation Yrotation
									JOINT LeftHandIndex2
									{
										OFFSET	 0.000000	 0.047237	 0.000000
										CHANNELS 3 Zrotation Xrotation Yrotation
										JOINT LeftHandIndex3
										{
											OFFSET	-0.004284	 0.038165	 0.000551
											CHANNELS 3 Zrotation Xrotation Yrotation
											End Site
											{
												OFFSET	-0.004284	 0.038165	 0.000551
											}
										}
									}
								}
							}
						}
					}
				}
				JOINT Neck
				{
					OFFSET	 0.000000	 0.176489	 0.000000
					CHANNELS 3 Zrotation Xrotation Yrotation
					JOINT Head
					{
						OFFSET	 0.000000	 0.077941	 0.001747
						CHANNELS 3 Zrotation Xrotation Yrotation
						End Site
						{
							OFFSET	 0.000000	 0.077941	 0.001747
						}
					}
				}
				JOINT RightShoulder
				{
					OFFSET	-0.080363	 0.159706	-0.000306
					CHANNELS 3 Zrotation Xrotation Yrotation
					JOINT RightArm
					{
						OFFSET	 0.000000	 0.164196	 0.000000
						CHANNELS 3 Zrotation Xrotation Yrotation
						JOINT RightForeArm
						{
							OFFSET	 0.000000	 0.365611	 0.000000
							CHANNELS 3 Zrotation Xrotation Yrotation
							JOINT RightHand
							{
								OFFSET	 0.000000	 0.360648	 0.000000
								CHANNELS 3 Zrotation Xrotation Yrotation
								JOINT RightHandIndex1
								{
									OFFSET	 0.000000	 0.069977	 0.000000
									CHANNELS 3 Zrotation Xrotation Yrotation
									JOINT RightHandIndex2
									{
										OFFSET	 0.000000	 0.052305	 0.000000
										CHANNELS 3 Zrotation Xrotation Yrotation
										JOINT RightHandIndex3
										{
											OFFSET	 0.009002	 0.042196	 0.000782
											CHANNELS 3 Zrotation Xrotation Yrotation
											End Site
											{
												OFFSET	 0.009002	 0.042196	 0.000782
											}
										}
									}
								}
							}
						}
					}
				}
			}
		}
	}
}
MOTION
Frames:    4
Frame Time: 0.03333334
 0.021624	 1.267595	 0.012194	-0.335946	 3.603940	 178.113500	-177.623600	 4.179313	-14.419030	 3.214510	-15.896820	 3.372615	-5.047988	 68.883120	 5.605718	 1.331492	 28.938720	-2.729976	 178.750100	 6.037451	 17.063380	-5.744065	-18.272590	-7.595183	-2.390200	 71.071890	 1.887324	-1.312042	 28.674770	 2.781586	-0.736215	 4.086147	-0.108083	-0.990922	 4.711768	-0.331311	-0.910509	-1.755674	-0.474221	-113.449300	 4.730918	 92.852230	 49.816980	 45.671430	 3.624044	 4.657071	-0.240718	-0.074077	-16.620380	 4.614296	-11.167410	-6.580301	 5.266122	 0.000000	 0.000000	 0.000000	 0.000000	 0.000000	 0.000000	 0.000000	 3.181304	-0.892783	-0.688778	 3.225662	 0.520378	 0.973856	 114.182400	-4.172179	-88.529270	-6.737997	 44.057600	-47.951800	-44.065910	-1.567405	-0.575805	 18.070380	-4.116753	 22.629130	-0.369880	 10.873130	 0.746433	 11.981670	 9.601770	-2.157272	-8.359320	 3.159339	 0.103672
-0.000894	 1.269591	-0.008564	-0.000593	 3.174311	 178.798700	-178.310700	 3.211790	-14.948060	 3.066206	-15.159640	 2.873504	-5.174729	 69.506270	 6.713475	 1.331492	 28.938720	-2.729976	 177.950700	 4.243886	 18.455160	-5.087456	-16.306800	-6.451987	 2.506441	 70.403340	-1.747103	-1.305359	 28.580640	 2.604932	-1.091399	 3.344668	-0.861852	-1.640720	 3.424451	-1.246374	-1.666829	-2.062610	-0.652526	-113.447000	 5.126966	 93.000240	 52.014690	 39.628860	 1.844734	 4.403557	-0.227389	-0.042915	-19.239890	 11.212920	-14.663350	-6.580301	 5.266122	 0.000000	 0.000000	 0.000000	 0.000000	 0.000000	 0.000000	 0.000000	 3.829369	-0.642817	-0.249952	 3.206765	 1.181107	 1.446650	 114.205800	-4.429334	-88.481810	-81.099850	-11.700500	 39.499320	-82.299710	-2.232558	-1.924923	 1.749858	-16.455430	-30.988120	-0.359781	 10.582450	 0.744568	 11.977790	 9.317314	-2.096066	-8.359142	 3.150338	 0.104224
-0.000876	 1.269601	-0.008515	 0.023058	 3.128594	 178.788600	-178.199500	 3.275607	-15.579910	 3.075262	-15.202360	 2.872802	-5.182778	 69.499040	 6.721308	 1.331492	 28.938720	-2.729976	 177.885400	 4.285650	 19.072910	-5.083169	-16.293820	-6.455729	 2.488179	 70.385440	-1.730939	-1.305361	 28.580660	 2.604412	-1.065010	 3.253114	-0.716526	-1.649760	 3.485551	-1.240922	-1.662426	-2.094492	-0.651783	-113.447100	 5.125858	 93.000000	 51.846800	 39.617880	 1.985100	 4.415088	-0.226945	 0.065496	-19.096390	 11.254150	-14.697520	-6.580301	 5.266122	 0.000000	 0.000000	 0.000000	 0.000000	 0.000000	 0.000000	 0.000000	 3.831161	-0.646931	-0.250511	 3.213502	 1.183380	 1.442771	 114.205500	-4.427140	-88.483390	-80.643460	-11.512150	 39.473320	-82.639690	-2.233514	-2.046527	 1.428191	-16.180510	-30.919570	-0.359781	 10.582430	 0.744568	 11.977790	 9.317304	-2.096064	-8.359142	 3.150333	 0.104224
-0.000844	 1.269610	-0.008480	 0.049710	 3.083639	 178.773400	-178.081900	 3.337410	-16.229070	 3.085030	-15.248420	 2.870042	-5.198480	 69.493440	 6.736204	 1.331492	 28.938720	-2.729976	 177.822600	 4.323799	 19.699480	-5.077938	-16.277940	-6.462938	 2.460960	 70.368300	-1.704091	-1.305365	 28.580680	 2.603506	-1.057712	 3.199567	-0.461693	-1.629465	 3.468866	-1.234351	-1.672703	-2.092749	-0.649998	-113.447100	 5.123951	 92.999580	 51.701110	 39.575400	 2.113630	 4.439671	-0.226454	 0.254688	-18.969160	 11.338330	-14.726930	-6.580301	 5.266122	 0.000000	 0.000000	 0.000000	 0.000000	 0.000000	 0.000000	 0.000000	 3.834290	-0.654107	-0.251485	 3.225259	 1.187441	 1.436003	 114.205000	-4.423336	-88.486140	-80.096780	-11.405650	 39.367710	-82.918000	-2.233538	-2.246471	 0.875912	-15.722360	-30.796420	-0.359780	 10.582420	 0.744568	 11.977790	 9.317285	-2.096060	-8.359142	 3.150323	 0.104225
